#!OML:ASF I:\Actors\actors\Patient Classification 2\Patient 1\Session 1\actor1.ASF
:FULLY-SPECIFIED
:DEGREES
434
root -0.186272 18.5024 5.12402 30.9164 -1.37069 -11.8132
lowerback 35.0901 4.16661 -6.90266
upperback 13.7873 2.63621 -2.42073
thorax -2.57842 1.03246 0.220533
lowerneck 7.07911 -14.6727 -20.6062
upperneck 23.4899 -21.9874 13.9307
head 10.3275 -11.1721 6.14186
rclavicle -1.59028e-014 -1.35174e-014
rhumerus 58.8403 35.1931 -47.6838
rradius 51.1814
rwrist 12.7778
rhand -0.64624 -29.7356
rfingers 7.12502
rthumb 24.9712 -58.1238
lclavicle -1.59028e-014 -1.35174e-014
lhumerus -22.5698 1.95272 65.8062
lradius 57.2047
lwrist 18.754
lhand -14.6616 -19.7768
lfingers 7.12502
lthumb 11.4911 9.88823
rfemur -38.3891 0.988059 24.604
rtibia 18.9111
rfoot -12.6917 -9.0102
rtoes -10.5735
lfemur -51.2556 7.49137 -4.32176
ltibia 43.3736
lfoot -20.6448 10.1434
ltoes -55.5546
435
root -0.194271 18.4855 5.11739 31.0579 -1.44934 -11.5332
lowerback 34.8596 4.19893 -6.93696
upperback 13.7747 2.70618 -2.15745
thorax -2.53027 1.05414 0.498417
lowerneck 7.33727 -14.5527 -20.6986
upperneck 23.4075 -21.8827 14.06
head 10.2573 -11.1331 6.24226
rclavicle -4.6118e-014 -8.34896e-015
rhumerus 58.4198 34.9856 -48.6572
rradius 51.0329
rwrist 12.4061
rhand -0.965919 -29.8574
rfingers 7.12502
rthumb 24.6649 -58.2879
lclavicle -4.6118e-014 -8.34896e-015
lhumerus -22.645 1.67051 66.6165
lradius 57.7772
lwrist 19.0657
lhand -14.3863 -19.5143
lfingers 7.12502
lthumb 11.7566 10.1358
rfemur -38.9437 0.674941 24.4461
rtibia 19.6136
rfoot -12.8803 -8.59268
rtoes -10.8741
lfemur -51.6085 7.54105 -4.67719
ltibia 43.6353
lfoot -20.6494 10.0537
ltoes -55.5704
436
root -0.199293 18.4668 5.11198 31.2427 -1.53627 -11.1757
lowerback 34.5052 4.13535 -6.89449
upperback 13.7984 2.69443 -1.95763
thorax -2.39267 1.04069 0.703139
lowerneck 7.57395 -14.3976 -20.8628
upperneck 23.3594 -21.7522 14.2735
head 10.2183 -11.0836 6.38594
rclavicle 4.92986e-014 -1.47101e-014
rhumerus 58.0831 34.7757 -49.6618
rradius 50.7761
rwrist 12.0566
rhand -1.29064 -29.8595
rfingers 7.12502
rthumb 24.3536 -58.3321
lclavicle 4.92986e-014 -1.47101e-014
lhumerus -22.8218 1.53497 67.4081
lradius 58.1405
lwrist 19.2241
lhand -13.9299 -19.5143
lfingers 7.12502
lthumb 12.1967 10.1101
rfemur -39.4613 0.372043 24.1702
rtibia 20.1414
rfoot -13.1066 -8.2114
rtoes -11.4288
lfemur -52.0306 7.49588 -5.09789
ltibia 43.9323
lfoot -20.748 9.97436
ltoes -55.3793
437
root -0.201802 18.444 5.10692 31.4248 -1.58072 -10.7697
lowerback 34.0405 4.04414 -6.77517
upperback 13.8888 2.68705 -1.73044
thorax -2.14417 1.02814 0.90066
lowerneck 7.86725 -14.3109 -20.9599
upperneck 23.2611 -21.6988 14.4206
head 10.1496 -11.0693 6.48681
rclavicle 0 4.01545e-014
rhumerus 57.5765 34.4326 -50.5931
rradius 50.624
rwrist 11.7725
rhand -1.54424 -29.8969
rfingers 7.12502
rthumb 24.1105 -58.402
lclavicle 0 4.01545e-014
lhumerus -22.8079 1.32791 68.304
lradius 58.504
lwrist 19.3596
lhand -13.4155 -19.5056
lfingers 7.12502
lthumb 12.6926 10.0887
rfemur -39.8931 -0.00390713 23.8756
rtibia 20.5222
rfoot -13.4716 -7.79855
rtoes -12.0248
lfemur -52.4902 7.41346 -5.58188
ltibia 44.2514
lfoot -20.8487 9.87625
ltoes -55.2599
438
root -0.203856 18.4168 5.10362 31.6036 -1.54029 -10.3733
lowerback 33.496 3.98181 -6.60428
upperback 13.9967 2.74206 -1.39239
thorax -1.85531 1.04219 1.17002
lowerneck 8.35563 -14.2927 -20.971
upperneck 23.1242 -21.7205 14.4192
head 10.0192 -11.0965 6.5245
rclavicle 1.43125e-014 4.29375e-014
rhumerus 56.8667 33.9873 -51.3474
rradius 50.5271
rwrist 11.4022
rhand -1.85054 -30.179
rfingers 7.12502
rthumb 23.8167 -58.7226
lclavicle 1.43125e-014 4.29375e-014
lhumerus -22.5577 1.03999 69.4307
lradius 58.7376
lwrist 19.4473
lhand -13.0588 -19.4852
lfingers 7.12502
lthumb 13.0365 10.0874
rfemur -40.2738 -0.397702 23.6388
rtibia 20.8674
rfoot -14.0343 -7.43102
rtoes -12.8415
lfemur -52.9679 7.33426 -6.04816
ltibia 44.5632
lfoot -20.895 9.77216
ltoes -55.3932
439
root -0.207156 18.3915 5.09832 31.8013 -1.45145 -9.97248
lowerback 33.0686 3.66167 -6.26171
upperback 14.0533 2.51009 -1.19882
thorax -1.63591 0.934642 1.28347
lowerneck 8.58578 -14.0975 -21.2886
upperneck 23.2361 -21.5348 14.5494
head 10.0388 -11.0353 6.66869
rclavicle -2.06736e-014 5.00937e-014
rhumerus 56.4525 33.8877 -52.162
rradius 50.334
rwrist 11.1317
rhand -2.2251 -30.5502
rfingers 7.12502
rthumb 23.4575 -59.1402
lclavicle -2.06736e-014 5.00937e-014
lhumerus -22.286 1.31392 70.411
lradius 58.2095
lwrist 19.3351
lhand -12.8116 -20.1051
lfingers 7.12502
lthumb 13.2748 9.45212
rfemur -40.7283 -0.667474 23.3436
rtibia 21.3056
rfoot -14.704 -7.2161
rtoes -13.0623
lfemur -53.4687 7.18395 -6.45397
ltibia 44.8438
lfoot -20.8836 9.63023
ltoes -55.5347
